<svg width="372" height="245" viewBox="0 0 372 245" fill="none" xmlns="http://www.w3.org/2000/svg">
<rect x="158.716" y="19.2394" width="54.568" height="102.568" rx="6.52071" stroke="black" style="stroke:black;stroke-opacity:1;" stroke-width="3.43195"/>
<rect x="174.846" y="17.8672" width="22.6509" height="5.83432" rx="2.74556" fill="black" style="fill:black;fill-opacity:1;"/>
<path fill-rule="evenodd" clip-rule="evenodd" d="M165.58 35.9682C165.58 34.4519 166.809 33.2227 168.326 33.2227H203.675C205.191 33.2227 206.42 34.4519 206.42 35.9682V47.98C206.42 49.4964 205.191 50.7256 203.675 50.7256H168.326C166.809 50.7256 165.58 49.4964 165.58 47.9801V35.9682ZM170.042 38.714C170.042 37.9559 170.657 37.3413 171.415 37.3413H177.592C178.35 37.3413 178.965 37.9559 178.965 38.714V39.7436C178.965 40.5018 178.35 41.1164 177.592 41.1164H171.415C170.657 41.1164 170.042 40.5018 170.042 39.7436V38.714ZM171.415 42.8328C170.657 42.8328 170.042 43.4474 170.042 44.2056V45.2351C170.042 45.9933 170.657 46.6079 171.415 46.6079H200.929C201.688 46.6079 202.302 45.9933 202.302 45.2351V44.2056C202.302 43.4474 201.688 42.8328 200.929 42.8328H171.415Z" fill="black" style="fill:black;fill-opacity:1;"/>
<path d="M81.6945 181.016C76.1027 181.016 72.6301 177.051 72.6301 170.666C72.6301 164.254 76.0891 160.303 81.6809 160.303C86.1652 160.303 89.6242 163.229 90.0344 167.344H86.5617C86.0695 164.979 84.1691 163.447 81.6809 163.447C78.3313 163.447 76.2395 166.209 76.2395 170.652C76.2395 175.109 78.3313 177.871 81.6945 177.871C84.1965 177.871 86.0969 176.477 86.5754 174.262H90.048C89.5832 178.295 86.2473 181.016 81.6945 181.016ZM93.6131 180.523V159.783H96.9491V167.986H97.1952C97.9061 166.305 99.5057 165.293 101.734 165.293C104.933 165.293 106.875 167.316 106.875 170.871V180.523H103.484V171.678C103.484 169.408 102.445 168.246 100.476 168.246C98.2479 168.246 97.0038 169.695 97.0038 171.842V180.523H93.6131ZM117.03 167.959C115.006 167.959 113.584 169.408 113.434 171.596H120.475C120.407 169.381 119.067 167.959 117.03 167.959ZM120.502 176.408H123.715C123.1 179.129 120.598 180.824 117.071 180.824C112.668 180.824 110.016 177.912 110.016 173.1C110.016 168.287 112.709 165.266 117.043 165.266C121.309 165.266 123.866 168.096 123.866 172.812V173.906H113.42V174.084C113.502 176.572 114.938 178.131 117.166 178.131C118.848 178.131 120.01 177.516 120.502 176.408ZM140.05 170.598H136.823C136.509 169.148 135.388 168.109 133.528 168.109C131.204 168.109 129.823 169.9 129.823 173.004C129.823 176.148 131.218 177.98 133.528 177.98C135.292 177.98 136.468 177.146 136.823 175.588H140.05C139.681 178.719 137.329 180.824 133.542 180.824C129.044 180.824 126.392 177.926 126.392 173.004C126.392 168.15 129.03 165.266 133.528 165.266C137.37 165.266 139.694 167.453 140.05 170.598ZM146.91 171.664L152.433 165.566H156.371L150.41 171.979L156.781 180.523H152.679L147.881 174.111L146.678 175.314V180.523H143.287V159.783H146.678V171.664H146.91ZM168.218 185.951C168.013 185.951 167.097 185.938 166.878 185.896V183.121C167.069 183.162 167.575 183.176 167.808 183.176C169.243 183.176 170.05 182.629 170.487 181.248L170.665 180.592L165.319 165.566H169.038L172.538 177.242H172.771L176.257 165.566H179.839L174.439 181.002C173.167 184.721 171.567 185.951 168.218 185.951ZM188.476 180.824C183.992 180.824 181.285 177.898 181.285 173.045C181.285 168.219 184.033 165.266 188.476 165.266C192.933 165.266 195.668 168.205 195.668 173.045C195.668 177.898 192.947 180.824 188.476 180.824ZM188.476 177.98C190.841 177.98 192.181 176.176 192.181 173.045C192.181 169.928 190.828 168.109 188.476 168.109C186.111 168.109 184.758 169.928 184.758 173.045C184.758 176.176 186.111 177.98 188.476 177.98ZM211.961 165.566V180.523H208.694V178.145H208.461C207.737 179.854 206.274 180.824 203.991 180.824C200.723 180.824 198.809 178.787 198.809 175.287V165.566H202.2V174.439C202.2 176.723 203.143 177.844 205.166 177.844C207.367 177.844 208.571 176.49 208.571 174.275V165.566H211.961ZM215.978 180.523V165.566H219.245V167.891H219.478C219.888 166.414 221.501 165.32 223.429 165.32C223.921 165.32 224.522 165.375 224.837 165.471V168.615C224.577 168.52 223.675 168.424 223.101 168.424C220.899 168.424 219.368 169.791 219.368 171.883V180.523H215.978ZM235.891 161.902H239.268V165.662H242.467V168.369H239.268V175.711C239.268 177.188 239.897 177.844 241.319 177.844C241.797 177.844 242.057 177.816 242.467 177.775V180.428C241.975 180.523 241.346 180.592 240.69 180.592C237.258 180.592 235.891 179.43 235.891 176.531V168.369H233.526V165.662H235.891V161.902ZM251.856 167.959C249.833 167.959 248.411 169.408 248.261 171.596H255.302C255.233 169.381 253.893 167.959 251.856 167.959ZM255.329 176.408H258.542C257.927 179.129 255.425 180.824 251.897 180.824C247.495 180.824 244.843 177.912 244.843 173.1C244.843 168.287 247.536 165.266 251.87 165.266C256.136 165.266 258.692 168.096 258.692 172.812V173.906H248.247V174.084C248.329 176.572 249.765 178.131 251.993 178.131C253.675 178.131 254.837 177.516 255.329 176.408ZM267.166 175.396H266.933L263.884 180.551H260.22L265.06 173.127L260.179 165.594H264.117L267.083 170.734H267.316L270.269 165.594H274.001L269.175 172.99L274.056 180.551H270.228L267.166 175.396ZM277.99 161.902H281.367V165.662H284.567V168.369H281.367V175.711C281.367 177.188 281.996 177.844 283.418 177.844C283.897 177.844 284.156 177.816 284.567 177.775V180.428C284.074 180.523 283.445 180.592 282.789 180.592C279.358 180.592 277.99 179.43 277.99 176.531V168.369H275.625V165.662H277.99V161.902ZM287.284 169.846C287.284 167.139 289.745 165.266 293.272 165.266C296.827 165.266 299.055 166.838 299.302 169.559H296.116C295.87 168.506 294.872 167.836 293.286 167.836C291.741 167.836 290.579 168.574 290.579 169.654C290.579 170.502 291.29 171.021 292.794 171.363L295.432 171.965C298.29 172.607 299.616 173.838 299.616 176.039C299.616 178.91 296.977 180.824 293.245 180.824C289.513 180.824 287.161 179.211 286.901 176.49H290.251C290.579 177.598 291.632 178.254 293.327 178.254C295.036 178.254 296.225 177.502 296.225 176.395C296.225 175.547 295.583 175.014 294.161 174.699L291.509 174.084C288.638 173.428 287.284 172.102 287.284 169.846Z" fill="#051B2C" style="fill:#051B2C;fill:color(display-p3 0.0196 0.1059 0.1725);fill-opacity:1;"/>
<path d="M8.21875 204.5V208.812H10.9922C12.4375 208.812 13.2578 208.039 13.2578 206.656C13.2578 205.305 12.3828 204.5 10.9297 204.5H8.21875ZM8.21875 210.062V214.523H6.8125V203.25H11.1172C13.2891 203.25 14.7109 204.578 14.7109 206.609C14.7109 208.18 13.8594 209.398 12.4453 209.844L15.0547 214.523H13.4062L10.9922 210.062H8.21875ZM20.2188 207.141C18.875 207.141 17.9375 208.125 17.8359 209.617H22.4766C22.4453 208.125 21.5547 207.141 20.2188 207.141ZM22.4375 212.344H23.7812C23.3906 213.781 22.0781 214.672 20.2344 214.672C17.8984 214.672 16.4375 212.984 16.4375 210.32C16.4375 207.672 17.9219 205.953 20.2344 205.953C22.5078 205.953 23.8906 207.57 23.8906 210.188V210.703H17.8359V210.766C17.9062 212.43 18.8359 213.484 20.2656 213.484C21.3516 213.484 22.0859 213.086 22.4375 212.344ZM30.1016 205.953C32.25 205.953 33.6406 207.664 33.6406 210.312C33.6406 212.945 32.2422 214.672 30.1016 214.672C28.8984 214.672 27.9297 214.148 27.4688 213.258H27.3438V217.336H26V206.102H27.2812V207.508H27.4062C27.9453 206.539 28.9531 205.953 30.1016 205.953ZM29.7812 213.461C31.3281 213.461 32.25 212.281 32.25 210.312C32.25 208.344 31.3281 207.164 29.7891 207.164C28.2656 207.164 27.3047 208.375 27.3047 210.312C27.3047 212.242 28.2656 213.461 29.7812 213.461ZM35.8281 214.523V202.758H37.1719V214.523H35.8281ZM40.5 217.57C40.3203 217.57 40.0859 217.555 39.8984 217.523V216.375C40.0625 216.406 40.2734 216.414 40.4609 216.414C41.2344 216.414 41.6562 216.047 42.0078 215.031L42.1641 214.531L39.0469 206.102H40.5L42.8125 213.031H42.9375L45.2422 206.102H46.6719L43.3828 215.039C42.6641 216.992 41.9922 217.57 40.5 217.57ZM54.2578 203.25H55.2344L54.3672 207.461H52.8438L54.2578 203.25ZM62.3125 214.523H60.9062V209.672L56.9062 203.25H58.5078L61.5469 208.258H61.6719L64.7109 203.25H66.3125L62.3125 209.672V214.523ZM68.9609 207.461H67.9844L68.8516 203.25H70.375L68.9609 207.461ZM77.8438 203.922H79.1875V206.102H81.0625V207.227H79.1875V211.992C79.1875 212.984 79.5625 213.406 80.4375 213.406C80.6797 213.406 80.8125 213.398 81.0625 213.375V214.508C80.7969 214.555 80.5391 214.586 80.2734 214.586C78.5391 214.586 77.8438 213.945 77.8438 212.336V207.227H76.4844V206.102H77.8438V203.922ZM86.4297 214.672C84.0312 214.672 82.5469 213.016 82.5469 210.312C82.5469 207.602 84.0312 205.953 86.4297 205.953C88.8281 205.953 90.3125 207.602 90.3125 210.312C90.3125 213.016 88.8281 214.672 86.4297 214.672ZM86.4297 213.461C88.0234 213.461 88.9219 212.305 88.9219 210.312C88.9219 208.312 88.0234 207.164 86.4297 207.164C84.8359 207.164 83.9375 208.312 83.9375 210.312C83.9375 212.305 84.8359 213.461 86.4297 213.461ZM96.7422 208.406C96.7422 207.008 98.0938 205.953 99.8828 205.953C101.648 205.953 102.875 206.828 103.055 208.211H101.727C101.547 207.539 100.891 207.094 99.875 207.094C98.875 207.094 98.0938 207.602 98.0938 208.352C98.0938 208.93 98.5625 209.289 99.5547 209.531L100.852 209.844C102.438 210.227 103.203 210.914 103.203 212.125C103.203 213.633 101.742 214.672 99.8281 214.672C97.9531 214.672 96.6641 213.773 96.5156 212.375H97.8984C98.125 213.086 98.7969 213.539 99.875 213.539C101.008 213.539 101.82 213 101.82 212.227C101.82 211.648 101.383 211.258 100.484 211.039L99.0391 210.688C97.4609 210.305 96.7422 209.625 96.7422 208.406ZM112.125 206.102V214.523H110.844V213.203H110.719C110.297 214.141 109.398 214.672 108.109 214.672C106.219 214.672 105.234 213.547 105.234 211.555V206.102H106.578V211.227C106.578 212.742 107.141 213.445 108.484 213.445C109.969 213.445 110.781 212.562 110.781 211.086V206.102H112.125ZM118.844 214.672C117.672 214.672 116.672 214.117 116.141 213.18H116.016V214.523H114.734V202.758H116.078V207.43H116.203C116.664 206.523 117.688 205.953 118.844 205.953C120.984 205.953 122.375 207.664 122.375 210.312C122.375 212.945 120.977 214.672 118.844 214.672ZM118.531 207.164C117 207.164 116.047 208.367 116.047 210.312C116.047 212.258 117 213.461 118.531 213.461C120.07 213.461 120.984 212.281 120.984 210.312C120.984 208.344 120.07 207.164 118.531 207.164ZM124.289 208.406C124.289 207.008 125.641 205.953 127.43 205.953C129.195 205.953 130.422 206.828 130.602 208.211H129.273C129.094 207.539 128.438 207.094 127.422 207.094C126.422 207.094 125.641 207.602 125.641 208.352C125.641 208.93 126.109 209.289 127.102 209.531L128.398 209.844C129.984 210.227 130.75 210.914 130.75 212.125C130.75 213.633 129.289 214.672 127.375 214.672C125.5 214.672 124.211 213.773 124.062 212.375H125.445C125.672 213.086 126.344 213.539 127.422 213.539C128.555 213.539 129.367 213 129.367 212.227C129.367 211.648 128.93 211.258 128.031 211.039L126.586 210.688C125.008 210.305 124.289 209.625 124.289 208.406ZM139.828 208.68H138.469C138.25 207.844 137.508 207.164 136.297 207.164C134.781 207.164 133.828 208.375 133.828 210.281C133.828 212.227 134.797 213.461 136.297 213.461C137.43 213.461 138.219 212.938 138.469 211.984H139.828C139.586 213.531 138.328 214.672 136.305 214.672C133.945 214.672 132.438 212.961 132.438 210.281C132.438 207.656 133.938 205.953 136.297 205.953C138.344 205.953 139.594 207.18 139.828 208.68ZM141.812 214.523V206.102H143.094V207.352H143.219C143.469 206.531 144.438 205.953 145.555 205.953C145.773 205.953 146.055 205.969 146.227 205.992V207.336C146.117 207.305 145.633 207.258 145.367 207.258C144.086 207.258 143.156 208.117 143.156 209.305V214.523H141.812ZM147.938 214.523V206.102H149.281V214.523H147.938ZM148.609 204.477C148.094 204.477 147.672 204.055 147.672 203.539C147.672 203.023 148.094 202.602 148.609 202.602C149.125 202.602 149.547 203.023 149.547 203.539C149.547 204.055 149.125 204.477 148.609 204.477ZM156.031 214.672C154.859 214.672 153.859 214.117 153.328 213.18H153.203V214.523H151.922V202.758H153.266V207.43H153.391C153.852 206.523 154.875 205.953 156.031 205.953C158.172 205.953 159.562 207.664 159.562 210.312C159.562 212.945 158.164 214.672 156.031 214.672ZM155.719 207.164C154.188 207.164 153.234 208.367 153.234 210.312C153.234 212.258 154.188 213.461 155.719 213.461C157.258 213.461 158.172 212.281 158.172 210.312C158.172 208.344 157.258 207.164 155.719 207.164ZM165.031 207.141C163.688 207.141 162.75 208.125 162.648 209.617H167.289C167.258 208.125 166.367 207.141 165.031 207.141ZM167.25 212.344H168.594C168.203 213.781 166.891 214.672 165.047 214.672C162.711 214.672 161.25 212.984 161.25 210.32C161.25 207.672 162.734 205.953 165.047 205.953C167.32 205.953 168.703 207.57 168.703 210.188V210.703H162.648V210.766C162.719 212.43 163.648 213.484 165.078 213.484C166.164 213.484 166.898 213.086 167.25 212.344ZM177.922 213.492C179.305 213.492 180.328 212.586 180.328 211.383V210.609L178.062 210.758C176.781 210.844 176.219 211.289 176.219 212.133C176.219 212.992 176.945 213.492 177.922 213.492ZM177.672 214.672C176.039 214.672 174.828 213.703 174.828 212.164C174.828 210.656 175.938 209.789 177.898 209.672L180.328 209.523V208.758C180.328 207.719 179.68 207.148 178.422 207.148C177.414 207.148 176.711 207.531 176.523 208.195H175.164C175.344 206.844 176.672 205.953 178.469 205.953C180.523 205.953 181.672 207.008 181.672 208.758V214.523H180.391V213.281H180.266C179.719 214.18 178.797 214.672 177.672 214.672ZM184.156 214.523V206.102H185.438V207.43H185.562C185.984 206.5 186.805 205.953 188.094 205.953C189.984 205.953 191.039 207.07 191.039 209.07V214.523H189.695V209.398C189.695 207.883 189.055 207.164 187.711 207.164C186.367 207.164 185.5 208.062 185.5 209.539V214.523H184.156ZM196.617 214.672C194.461 214.672 193.078 212.961 193.078 210.312C193.078 207.672 194.477 205.953 196.617 205.953C197.789 205.953 198.781 206.508 199.258 207.43H199.375V202.758H200.719V214.523H199.438V213.18H199.312C198.781 214.117 197.781 214.672 196.617 214.672ZM196.93 207.164C195.398 207.164 194.469 208.352 194.469 210.312C194.469 212.281 195.391 213.461 196.93 213.461C198.461 213.461 199.406 212.258 199.406 210.312C199.406 208.383 198.453 207.164 196.93 207.164ZM211.25 213.211C212.812 213.211 213.75 212.023 213.75 210.188C213.75 208.352 212.805 207.164 211.25 207.164C209.688 207.164 208.812 208.352 208.812 210.188C208.812 212.023 209.688 213.211 211.25 213.211ZM211.312 217.758C209.281 217.758 207.984 216.844 207.781 215.453H209.203C209.352 216.141 210.102 216.586 211.312 216.586C212.82 216.586 213.719 215.844 213.719 214.602V212.945H213.594C213.062 213.875 212.109 214.398 210.953 214.398C208.773 214.398 207.422 212.711 207.422 210.188C207.422 207.664 208.789 205.953 210.953 205.953C212.133 205.953 213.172 206.531 213.656 207.438H213.781V206.102H215.062V214.672C215.062 216.555 213.609 217.758 211.312 217.758ZM220.953 207.141C219.609 207.141 218.672 208.125 218.57 209.617H223.211C223.18 208.125 222.289 207.141 220.953 207.141ZM223.172 212.344H224.516C224.125 213.781 222.812 214.672 220.969 214.672C218.633 214.672 217.172 212.984 217.172 210.32C217.172 207.672 218.656 205.953 220.969 205.953C223.242 205.953 224.625 207.57 224.625 210.188V210.703H218.57V210.766C218.641 212.43 219.57 213.484 221 213.484C222.086 213.484 222.82 213.086 223.172 212.344ZM227.297 203.922H228.641V206.102H230.516V207.227H228.641V211.992C228.641 212.984 229.016 213.406 229.891 213.406C230.133 213.406 230.266 213.398 230.516 213.375V214.508C230.25 214.555 229.992 214.586 229.727 214.586C227.992 214.586 227.297 213.945 227.297 212.336V207.227H225.938V206.102H227.297V203.922ZM236.984 206.43C236.984 204.422 238.531 202.984 240.688 202.984C242.656 202.984 244.164 204.32 244.164 206.148C244.164 207.445 243.602 208.383 241.57 210.484L239.008 213.133V213.258H244.352V214.523H237.055V213.555L240.867 209.43C242.305 207.875 242.727 207.289 242.727 206.297C242.727 205.102 241.922 204.211 240.594 204.211C239.242 204.211 238.344 205.094 238.344 206.43H236.984ZM250.516 214.789C247.977 214.789 246.516 212.633 246.516 208.883C246.516 205.164 247.992 202.984 250.516 202.984C253.023 202.984 254.5 205.172 254.5 208.906C254.5 212.648 253.047 214.789 250.516 214.789ZM250.516 213.562C252.18 213.562 253.086 211.906 253.086 208.883C253.086 205.891 252.164 204.219 250.516 204.219C248.867 204.219 247.93 205.906 247.93 208.883C247.93 211.898 248.852 213.562 250.516 213.562ZM258.5 208.352C256.969 208.352 256.047 207.352 256.047 205.695C256.047 204.055 256.984 203.047 258.5 203.047C260.016 203.047 260.945 204.055 260.945 205.695C260.945 207.359 260.023 208.352 258.5 208.352ZM258.5 207.328C259.289 207.328 259.734 206.727 259.734 205.703C259.734 204.68 259.281 204.078 258.5 204.078C257.711 204.078 257.258 204.68 257.258 205.703C257.258 206.734 257.711 207.328 258.5 207.328ZM259.008 214.523H257.734L265.523 203.25H266.797L259.008 214.523ZM266.039 214.633C264.516 214.633 263.586 213.633 263.586 211.977C263.586 210.336 264.523 209.328 266.039 209.328C267.555 209.328 268.484 210.336 268.484 211.977C268.484 213.641 267.562 214.633 266.039 214.633ZM266.039 213.609C266.828 213.609 267.273 213.008 267.273 211.984C267.273 210.961 266.828 210.359 266.039 210.359C265.25 210.359 264.805 210.961 264.805 211.984C264.805 213.016 265.25 213.609 266.039 213.609ZM278.227 214.672C275.828 214.672 274.344 213.016 274.344 210.312C274.344 207.602 275.828 205.953 278.227 205.953C280.625 205.953 282.109 207.602 282.109 210.312C282.109 213.016 280.625 214.672 278.227 214.672ZM278.227 213.461C279.82 213.461 280.719 212.305 280.719 210.312C280.719 208.312 279.82 207.164 278.227 207.164C276.633 207.164 275.734 208.312 275.734 210.312C275.734 212.305 276.633 213.461 278.227 213.461ZM284.781 214.523V207.227H283.383V206.102H284.781V205.164C284.781 203.484 285.625 202.68 287.227 202.68C287.555 202.68 287.852 202.703 288.133 202.758V203.852C287.969 203.82 287.742 203.812 287.5 203.812C286.531 203.812 286.125 204.281 286.125 205.203V206.102H288.055V207.227H286.125V214.523H284.781ZM290.578 214.523V207.227H289.18V206.102H290.578V205.164C290.578 203.484 291.422 202.68 293.023 202.68C293.352 202.68 293.648 202.703 293.93 202.758V203.852C293.766 203.82 293.539 203.812 293.297 203.812C292.328 203.812 291.922 204.281 291.922 205.203V206.102H293.852V207.227H291.922V214.523H290.578ZM301.047 217.57C300.867 217.57 300.633 217.555 300.445 217.523V216.375C300.609 216.406 300.82 216.414 301.008 216.414C301.781 216.414 302.203 216.047 302.555 215.031L302.711 214.531L299.594 206.102H301.047L303.359 213.031H303.484L305.789 206.102H307.219L303.93 215.039C303.211 216.992 302.539 217.57 301.047 217.57ZM312.164 214.672C309.766 214.672 308.281 213.016 308.281 210.312C308.281 207.602 309.766 205.953 312.164 205.953C314.562 205.953 316.047 207.602 316.047 210.312C316.047 213.016 314.562 214.672 312.164 214.672ZM312.164 213.461C313.758 213.461 314.656 212.305 314.656 210.312C314.656 208.312 313.758 207.164 312.164 207.164C310.57 207.164 309.672 208.312 309.672 210.312C309.672 212.305 310.57 213.461 312.164 213.461ZM324.969 206.102V214.523H323.688V213.203H323.562C323.141 214.141 322.242 214.672 320.953 214.672C319.062 214.672 318.078 213.547 318.078 211.555V206.102H319.422V211.227C319.422 212.742 319.984 213.445 321.328 213.445C322.812 213.445 323.625 212.562 323.625 211.086V206.102H324.969ZM327.5 214.523V206.102H328.781V207.352H328.906C329.156 206.531 330.125 205.953 331.242 205.953C331.461 205.953 331.742 205.969 331.914 205.992V207.336C331.805 207.305 331.32 207.258 331.055 207.258C329.773 207.258 328.844 208.117 328.844 209.305V214.523H327.5ZM338.672 214.523V207.227H337.273V206.102H338.672V205.164C338.672 203.484 339.516 202.68 341.117 202.68C341.445 202.68 341.742 202.703 342.023 202.758V203.852C341.859 203.82 341.633 203.812 341.391 203.812C340.422 203.812 340.016 204.281 340.016 205.203V206.102H341.945V207.227H340.016V214.523H338.672ZM343.938 214.523V206.102H345.281V214.523H343.938ZM344.609 204.477C344.094 204.477 343.672 204.055 343.672 203.539C343.672 203.023 344.094 202.602 344.609 202.602C345.125 202.602 345.547 203.023 345.547 203.539C345.547 204.055 345.125 204.477 344.609 204.477ZM347.844 214.523V206.102H349.125V207.352H349.25C349.5 206.531 350.469 205.953 351.586 205.953C351.805 205.953 352.086 205.969 352.258 205.992V207.336C352.148 207.305 351.664 207.258 351.398 207.258C350.117 207.258 349.188 208.117 349.188 209.305V214.523H347.844ZM353.586 208.406C353.586 207.008 354.938 205.953 356.727 205.953C358.492 205.953 359.719 206.828 359.898 208.211H358.57C358.391 207.539 357.734 207.094 356.719 207.094C355.719 207.094 354.938 207.602 354.938 208.352C354.938 208.93 355.406 209.289 356.398 209.531L357.695 209.844C359.281 210.227 360.047 210.914 360.047 212.125C360.047 213.633 358.586 214.672 356.672 214.672C354.797 214.672 353.508 213.773 353.359 212.375H354.742C354.969 213.086 355.641 213.539 356.719 213.539C357.852 213.539 358.664 213 358.664 212.227C358.664 211.648 358.227 211.258 357.328 211.039L355.883 210.688C354.305 210.305 353.586 209.625 353.586 208.406ZM362.641 203.922H363.984V206.102H365.859V207.227H363.984V211.992C363.984 212.984 364.359 213.406 365.234 213.406C365.477 213.406 365.609 213.398 365.859 213.375V214.508C365.594 214.555 365.336 214.586 365.07 214.586C363.336 214.586 362.641 213.945 362.641 212.336V207.227H361.281V206.102H362.641V203.922ZM170.539 238.672C168.141 238.672 166.656 237.016 166.656 234.312C166.656 231.602 168.141 229.953 170.539 229.953C172.938 229.953 174.422 231.602 174.422 234.312C174.422 237.016 172.938 238.672 170.539 238.672ZM170.539 237.461C172.133 237.461 173.031 236.305 173.031 234.312C173.031 232.312 172.133 231.164 170.539 231.164C168.945 231.164 168.047 232.312 168.047 234.312C168.047 236.305 168.945 237.461 170.539 237.461ZM176.531 238.523V230.102H177.812V231.352H177.938C178.188 230.531 179.156 229.953 180.273 229.953C180.492 229.953 180.773 229.969 180.945 229.992V231.336C180.836 231.305 180.352 231.258 180.086 231.258C178.805 231.258 177.875 232.117 177.875 233.305V238.523H176.531ZM185.508 238.672C183.352 238.672 181.969 236.961 181.969 234.312C181.969 231.672 183.367 229.953 185.508 229.953C186.68 229.953 187.672 230.508 188.148 231.43H188.266V226.758H189.609V238.523H188.328V237.18H188.203C187.672 238.117 186.672 238.672 185.508 238.672ZM185.82 231.164C184.289 231.164 183.359 232.352 183.359 234.312C183.359 236.281 184.281 237.461 185.82 237.461C187.352 237.461 188.297 236.258 188.297 234.312C188.297 232.383 187.344 231.164 185.82 231.164ZM195.578 231.141C194.234 231.141 193.297 232.125 193.195 233.617H197.836C197.805 232.125 196.914 231.141 195.578 231.141ZM197.797 236.344H199.141C198.75 237.781 197.438 238.672 195.594 238.672C193.258 238.672 191.797 236.984 191.797 234.32C191.797 231.672 193.281 229.953 195.594 229.953C197.867 229.953 199.25 231.57 199.25 234.188V234.703H193.195V234.766C193.266 236.43 194.195 237.484 195.625 237.484C196.711 237.484 197.445 237.086 197.797 236.344ZM201.359 238.523V230.102H202.641V231.352H202.766C203.016 230.531 203.984 229.953 205.102 229.953C205.32 229.953 205.602 229.969 205.773 229.992V231.336C205.664 231.305 205.18 231.258 204.914 231.258C203.633 231.258 202.703 232.117 202.703 233.305V238.523H201.359Z" fill="#424D57" style="fill:#424D57;fill:color(display-p3 0.2588 0.3020 0.3412);fill-opacity:1;"/>
</svg>
